<svg xmlns="http://www.w3.org/2000/svg" width="30px" viewBox="0 0 124.934 139.62"><defs><linearGradient id="linear-gradient" x1=".617" x2=".08" y1=".19" y2=".912" gradientUnits="objectBoundingBox"><stop offset="0" stop-color="#d151f7"/><stop offset=".68" stop-color="#1578eb"/><stop offset="1" stop-color="#26bff7"/></linearGradient><filter id="Path_6" width="84.013" height="80.782" x="4.993" y="32.31" filterUnits="userSpaceOnUse"><feOffset dy="3"/><feGaussianBlur result="blur" stdDeviation="3"/><feFlood flood-color="#111115" flood-opacity=".275"/><feComposite in2="blur" operator="in"/><feComposite in="SourceGraphic"/></filter></defs><path id="Path_5" fill="url(#linear-gradient)" d="M67.866 21.083a14 14 0 0 1 24.268 0l55.789 96.934A14 14 0 0 1 135.789 139H24.211a14 14 0 0 1-12.134-20.984Z" data-name="Path 5" transform="rotate(90 74.595 64.405)"/><g filter="url(#Path_6)"><path id="Path_6-2" fill="#fff" stroke="rgba(0,0,0,0)" stroke-width="1" d="M54.785 99.49a7.484 7.484 0 0 1-2.128-2.421q-.688-1.312-2.314-5.193L39.496 65.053l-.393-.9-.379-.647h-6.3v20.942a34.123 34.123 0 0 0 .188 4.109 4.2 4.2 0 0 0 1 2.336 3.432 3.432 0 0 0 2.65.9 14.129 14.129 0 0 0 2.711-.355 14.171 14.171 0 0 1 2.669-.354 3.425 3.425 0 0 1 2.482 1.106 3.71 3.71 0 0 1 1.106 2.731q0 2.754-3 4.214t-8.635 1.461q-5.34 0-8.094-1.795a8.321 8.321 0 0 1-3.608-4.964 33.654 33.654 0 0 1-.855-8.469V63.509h-1.5a5.413 5.413 0 0 1-3.758-1.169 3.813 3.813 0 0 1-1.293-2.962 3.679 3.679 0 0 1 1.355-2.94 5.957 5.957 0 0 1 3.943-1.147h1.252v-6.842q0-2.752.146-4.316a6.352 6.352 0 0 1 .813-2.691 5.119 5.119 0 0 1 1.918-1.9 5.442 5.442 0 0 1 2.8-.73 5.63 5.63 0 0 1 3.922 1.627 4.825 4.825 0 0 1 1.481 2.648 24.193 24.193 0 0 1 .312 4.443v6.759H43.17q2.838 0 3.9 1.627a25.9 25.9 0 0 1 2.357 5.464l9.219 25.865 9.928-26.99a16 16 0 0 1 2.294-4.609 4.19 4.19 0 0 1 3.42-1.356 5.137 5.137 0 0 1 3.693 1.459 4.552 4.552 0 0 1 1.522 3.38 6.853 6.853 0 0 1-.271 1.751 16.556 16.556 0 0 1-.625 1.878q-.356.874-.814 2L66.864 91.873q-.46 1.167-1.189 2.962a15.412 15.412 0 0 1-1.627 3.066 6.4 6.4 0 0 1-2.212 1.981 6.628 6.628 0 0 1-3.191.71 6.177 6.177 0 0 1-3.86-1.102Z" data-name="Path 6"/></g></svg>